<svg width="316" height="284" xmlns="http://www.w3.org/2000/svg"><g fill="none" fill-rule="evenodd"><path d="M220.03 261.272c6.137-1.214 12.097 2.776 13.312 8.913 1.214 6.137-2.776 12.096-8.914 13.312-6.136 1.214-12.097-2.776-13.311-8.913-1.215-6.137 2.775-12.098 8.913-13.312zm.525 2.651a8.625 8.625 0 1010.136 6.786 8.627 8.627 0 00-10.136-6.786z" fill="#57A8DD"/><path d="M151.398 138.34c8.615-2.309 17.471 2.803 19.78 11.419 2.308 8.615-2.805 17.471-11.419 19.778-8.617 2.309-17.472-2.803-19.78-11.418-2.308-8.617 2.804-17.471 11.419-19.779zm1.045 3.899c-6.461 1.731-10.295 8.373-8.564 14.835 1.731 6.461 8.373 10.295 14.835 8.563 6.46-1.73 10.295-8.372 8.564-14.833-1.731-6.463-8.373-10.296-14.835-8.565z" fill="#3A5C7F"/><path d="M177.449 98.803c6.793-1.819 13.774 2.212 15.594 9.004 1.819 6.793-2.211 13.775-9.003 15.595-6.792 1.82-13.774-2.211-15.593-9.003-1.821-6.792 2.21-13.775 9.002-15.596zm.824 3.075c-5.094 1.366-8.117 6.603-6.752 11.697a9.549 9.549 0 1018.447-4.944 9.55 9.55 0 00-11.695-6.753z" fill="#FB970D"/><path d="M79.569 73.655c7.299-2.727 15.427.98 18.154 8.28 2.726 7.3-.981 15.428-8.28 18.153-7.3 2.727-15.427-.98-18.154-8.28-2.727-7.299.981-15.426 8.28-18.153zm2.198 2.996c-5.645 1.512-8.995 7.314-7.482 12.959 1.512 5.645 7.315 8.994 12.96 7.482 5.644-1.512 8.993-7.314 7.482-12.959-1.512-5.645-7.315-8.995-12.96-7.482zm47.878-31.858c12.822-3.436 26.002 4.173 29.438 16.995 3.434 12.823-4.175 26.002-16.996 29.436-12.822 3.437-26.001-4.172-29.436-16.994-3.437-12.822 4.172-26.001 16.994-29.437zm1.555 5.804c-9.616 2.577-15.323 12.461-12.746 22.077 2.577 9.617 12.461 15.324 22.078 12.747 9.615-2.576 15.323-12.46 12.747-22.077-2.577-9.617-12.462-15.324-22.079-12.747z" fill="#5BA921"/><path d="M279.057 170.823c17.269-10.424 18.07-26.814 10.903-38.686l5.546 1.085a10.382 10.382 0 009.019 1.792l.057-.016 5.547 1.086c-11.114 8.295-16.55 23.778-4.484 39.942l-11.016-2.155a15.05 15.05 0 00-4.577-.896l-10.995-2.152" fill="#FB970D"/><path d="M289.013 119.683c5.288-12.821-3.341-33.566-16.161-38.854l5.855-2.436a10.417 10.417 0 002.124-.341 10.353 10.353 0 004.275-2.32l5.853-2.435c-5.287 12.82 3.342 33.565 16.162 38.853l-5.855 2.436c-.704.039-1.415.151-2.124.341a10.348 10.348 0 00-4.275 2.321l-5.854 2.435" fill="#5BA921"/><path d="M264.556 70.798c-2.79-13.584-17.478-27.046-37.236-22.99l6.499-8.926a15.227 15.227 0 002.985-4.098l6.508-8.94c2.205 20.051 19.527 29.896 33.312 28.38l-3.341 4.589a10.42 10.42 0 00-5.387 7.397l-3.34 4.588" fill="#3A5C7F"/><path d="M206.382 39.093c-11.044-16.879-44.233-20.593-55.837-13l.961-5.693a10.373 10.373 0 001.49-8.603l-.024-.083.961-5.693c8.469 10.982 41.038 18.372 57.011 6.055l-1.766 10.457a15.06 15.06 0 00-1.032 6.114l-1.764 10.446" fill="#57A8DD"/><path d="M136.869 26.951c-12.462-6.082-56.577 5.76-65.425 23.887l-3.038-9.9a15.16 15.16 0 00-2.007-6.543l-3.036-9.896c17.492 10.046 60.657-4.892 67.563-16.917l1.711 5.577a10.373 10.373 0 00.271 4.021 10.358 10.358 0 002.25 4.195l1.711 5.576" fill="#FB970D"/><path d="M37.373 145.769c7.828 7.546 16.693 11.55 30.108-2.364l-1.715 25.968c-11.468-15.558-20.783-12.752-29.534-6.302l.285-4.325a8.488 8.488 0 001.2-7.01 8.546 8.546 0 00-.629-1.645l.285-4.322" fill="#E75627"/><path d="M81.526 195.887c3.935-8.059 3.348-14.633-8.373-20.356l25.598-6.883c-7.271 10.829-4.479 16.812 2.965 21.809l-5.255 1.413a10.347 10.347 0 00-5.164.058 10.344 10.344 0 00-4.516 2.546l-5.255 1.413" fill="#57A8DD"/><path d="M81.768 137.234c17.085-.199 21.196-7.949 21.059-19.696l4.182 3.625a10.404 10.404 0 007.315 6.34l4.18 3.622c-11.647 1.535-18.733 6.705-16.503 23.646l-9.304-8.065a15.174 15.174 0 00-1.608-1.393l-9.321-8.079" fill="#3A5C7F"/><path d="M209.9 68.889c7.776-7.627 10.053-15.404-1.04-26.716l12.882.927c.297.03.595.053.894.065l12.856.925c-12.599 9.607-11.459 17.63-4.855 26.292l-5.496-.396a10.37 10.37 0 00-8.224-1.24c-.53.142-1.039.323-1.526.538l-5.491-.395" fill="#E75627"/><path d="M209.163 87.911c-9.121-10.447-39.375-17.604-57.484-1.793l1.891-14.698c.143-.739.241-1.49.29-2.251l1.889-14.674c13.515 19.882 44.595 20.621 56.064 12.826l-.706 5.481a10.377 10.377 0 00-1.239 9.627l-.705 5.482M70.499 85.147c1.528-12.401-1.923-20.953-19.648-23.136l9.664-6.716c1-.54 1.924-1.186 2.76-1.918l9.665-6.716c-4.134 17.373 2.678 23.589 14.833 26.482l-4.661 3.238c-.448.06-.897.15-1.345.27a10.549 10.549 0 00-6.604 5.255l-4.664 3.241" fill="#5BA921"/><path d="M19.933 147.836c4.303-6.745 6.623-14.763-8.149-24.187l30.071-2.552c-12.973 11.778-9.334 19.291-3.956 25.214l-4.011.34a8.488 8.488 0 00-6.592-.931 8.481 8.481 0 00-3.357 1.776l-4.006.34" fill="#3A5C7F"/><path d="M17.427 79.08c18.394-6.014 21.598-15.889 16.717-30.82l7.674 3.56a15.16 15.16 0 0011.418 5.298l7.675 3.561c-14.554 5.914-20.025 14.736-12.739 32.666L36.52 87.938a18.712 18.712 0 00-7.457-3.459L17.427 79.08m222.234 26.406c25.9-5.788 27.969-20.918 24.945-34.452l4.663 2.405a10.413 10.413 0 009.586 4.945l4.666 2.406c-12.782 5.382-23.91 15.838-13.612 40.298l-30.248-15.602" fill="#57A8DD"/><path d="M230.559 153.354c-21.968-14.89-52.546-3.723-61.609 9.648l-1.579-6.291a12.051 12.051 0 00-.093-5.907 12.053 12.053 0 00-2.613-4.877l-1.579-6.292c14.303 7.508 46.531 2.915 58.865-20.583l3.794 15.117c.112.788.272 1.579.483 2.368.155.576.334 1.139.535 1.689l3.796 15.128" fill="#3A5C7F"/><path d="M172.748 121.014c-9.911-7.998-36.553-5.721-45.261 5.072l-.635-6.478a10.351 10.351 0 00-.114-4.922 10.614 10.614 0 00-.512-1.469l-.635-6.478c10.637 8.898 37.215 5.962 45.385-3.807l.555 5.659a9.507 9.507 0 00-.01 4.984c.168.626.395 1.221.672 1.781l.555 5.658M139.363 1.097c7.397-1.982 15 2.407 16.981 9.804 1.981 7.396-2.407 14.998-9.804 16.98-7.396 1.981-14.999-2.407-16.979-9.804-1.983-7.396 2.407-14.998 9.802-16.98zm.897 3.348c-5.546 1.486-8.838 7.188-7.352 12.735 1.486 5.548 7.188 8.839 12.735 7.353 5.548-1.487 8.839-7.188 7.353-12.736-1.486-5.547-7.188-8.839-12.736-7.352z" fill="#FB970D"/><path d="M218.042 8.57c10.758-2.882 21.816 3.502 24.7 14.26 2.881 10.758-3.503 21.816-14.261 24.698-10.758 2.883-21.817-3.501-24.699-14.259-2.882-10.758 3.502-21.816 14.26-24.699zm1.305 4.87c-8.069 2.162-12.857 10.455-10.695 18.524 2.162 8.069 10.455 12.857 18.524 10.695 8.069-2.162 12.857-10.456 10.696-18.524-2.163-8.069-10.456-12.857-18.525-10.695z" fill="#57A8DD"/><path d="M216.02 65.398c7.397-1.982 14.999 2.408 16.98 9.804 1.982 7.396-2.407 14.998-9.803 16.979-7.396 1.983-14.999-2.406-16.98-9.803-1.982-7.396 2.407-14.998 9.803-16.98zm.897 3.348c-5.547 1.486-8.839 7.188-7.352 12.735 1.486 5.547 7.188 8.839 12.735 7.352 5.547-1.486 8.839-7.187 7.352-12.734-1.485-5.547-7.187-8.839-12.735-7.353z" fill="#E75627"/><path d="M274.551 54.617c7.397-1.982 14.999 2.407 16.98 9.804 1.982 7.396-2.407 14.998-9.803 16.98-7.397 1.982-14.999-2.407-16.981-9.804-1.981-7.396 2.408-14.998 9.804-16.98zm.897 3.348c-5.547 1.486-8.839 7.188-7.353 12.735 1.487 5.548 7.188 8.839 12.736 7.352 5.547-1.485 8.839-7.187 7.352-12.734-1.486-5.548-7.187-8.839-12.735-7.353z" fill="#3A5C7F"/><path d="M298.245 111.579c7.396-1.982 14.999 2.407 16.98 9.804 1.982 7.396-2.407 14.998-9.803 16.979-7.397 1.982-14.999-2.407-16.981-9.802-1.982-7.397 2.408-14.999 9.804-16.981zm.897 3.348c-5.547 1.486-8.839 7.188-7.353 12.735 1.487 5.547 7.188 8.838 12.736 7.352 5.547-1.486 8.838-7.188 7.352-12.734-1.486-5.548-7.188-8.84-12.735-7.353z" fill="#5BA921"/><path d="M238.582 105.759c14.156-3.793 28.704 4.605 32.497 18.761 3.791 14.153-4.608 28.702-18.762 32.494-14.155 3.792-28.703-4.606-32.496-18.76-3.791-14.155 4.608-28.703 18.761-32.495zm1.717 6.406c-10.615 2.844-16.914 13.756-14.071 24.372 2.845 10.616 13.756 16.914 24.372 14.07 10.615-2.844 16.915-13.756 14.072-24.371-2.845-10.616-13.757-16.915-24.373-14.071z" fill="#57A8DD"/><path d="M113.105 103.985c7.396-1.982 15 2.406 16.981 9.804 1.982 7.396-2.408 14.998-9.804 16.98-7.396 1.981-14.999-2.407-16.98-9.803-1.982-7.397 2.407-14.999 9.803-16.981zm.897 3.348c-5.547 1.486-8.838 7.188-7.352 12.735 1.486 5.547 7.188 8.839 12.735 7.353 5.547-1.486 8.839-7.188 7.353-12.735-1.486-5.548-7.189-8.84-12.736-7.353z" fill="#3A5C7F"/><path d="M48.097 22.512c10.758-2.883 21.816 3.501 24.7 14.259 2.881 10.759-3.504 21.816-14.261 24.699-10.758 2.883-21.816-3.501-24.698-14.26-2.884-10.758 3.501-21.816 14.259-24.698zm1.305 4.87c-8.069 2.162-12.857 10.455-10.694 18.523 2.161 8.069 10.455 12.857 18.523 10.695 8.068-2.162 12.856-10.455 10.695-18.524-2.162-8.068-10.456-12.856-18.524-10.694z" fill="#57A8DD"/><path d="M18.719 78.703c13.254-3.552 26.877 4.313 30.428 17.566 3.55 13.255-4.314 26.878-17.568 30.427-13.252 3.552-26.875-4.312-30.427-17.566-3.551-13.255 4.315-26.876 17.567-30.427zm1.607 5.999c-9.939 2.663-15.838 12.88-13.175 22.82 2.664 9.941 12.882 15.839 22.821 13.175 9.94-2.662 15.838-12.879 13.176-22.82-2.664-9.94-12.881-15.839-22.822-13.175z" fill="#3A5C7F"/><path d="M76.783 137.925c10.759-2.882 21.817 3.502 24.699 14.26 2.882 10.758-3.502 21.816-14.26 24.698-10.758 2.884-21.816-3.5-24.698-14.258-2.883-10.759 3.501-21.817 14.259-24.7zm1.305 4.87c-8.069 2.162-12.857 10.455-10.695 18.525 2.162 8.068 10.455 12.856 18.524 10.693 8.068-2.161 12.857-10.455 10.695-18.523-2.162-8.069-10.455-12.856-18.524-10.695z" fill="#57A8DD"/><path d="M26.562 142.981c6.052-1.621 12.272 1.97 13.894 8.021 1.621 6.051-1.97 12.271-8.022 13.894-6.051 1.62-12.271-1.971-13.892-8.022-1.622-6.051 1.969-12.272 8.02-13.893zm.734 2.739a8.507 8.507 0 00-6.015 10.42 8.507 8.507 0 0010.419 6.016 8.51 8.51 0 006.017-10.42 8.51 8.51 0 00-10.421-6.016z" fill="#E75627"/><path d="M90.4 188.58c7.396-1.982 14.998 2.406 16.98 9.804 1.981 7.396-2.408 14.998-9.804 16.978-7.396 1.983-14.999-2.405-16.98-9.801-1.983-7.398 2.407-15 9.804-16.981zm.897 3.348c-5.548 1.485-8.84 7.187-7.353 12.735 1.486 5.547 7.188 8.838 12.735 7.352 5.547-1.486 8.839-7.187 7.353-12.734-1.486-5.549-7.188-8.84-12.735-7.353z" fill="#5BA921"/><path d="M212.024 267.461c4.923-10.206 2.753-24.359-12.159-31.553l21.334-6.298c-8.614 14.139-2.751 27.202 6.926 33.098l-4.155 1.226a8.605 8.605 0 00-3.415-.011 8.59 8.59 0 00-4.373 2.31l-4.158 1.228" fill="#57A8DD"/><path d="M281.161 206.413c-18.348-8.314-52.187 6.336-59.022 21.417l-2.721-6.813a12.372 12.372 0 00-.237-2.42 12.296 12.296 0 00-3.18-6.132l-2.723-6.814c15.344 6.22 49.962-6.483 57.528-25.152l3.621 9.061a15.07 15.07 0 003.136 7.85l3.598 9.003" fill="#E75627"/><path d="M203.846 204.759c8.967-1.776 17.677 4.054 19.451 13.024 1.775 8.967-4.057 17.675-13.024 19.451-8.968 1.774-17.677-4.056-19.451-13.023-1.775-8.97 4.057-17.676 13.024-19.452zm.815 4.116c-6.695 1.325-11.047 7.825-9.723 14.52 1.325 6.695 7.826 11.047 14.521 9.722 6.694-1.324 11.047-7.826 9.722-14.52-1.325-6.695-7.826-11.048-14.52-9.722z" fill="#E75627"/><path d="M284.261 168.613c10.758-2.881 21.816 3.501 24.7 14.26 2.881 10.758-3.503 21.816-14.261 24.698-10.759 2.884-21.817-3.501-24.699-14.26-2.882-10.758 3.502-21.815 14.26-24.698zm1.305 4.87c-8.069 2.162-12.857 10.455-10.695 18.523 2.161 8.07 10.455 12.858 18.524 10.695 8.069-2.162 12.856-10.455 10.696-18.523-2.163-8.07-10.457-12.856-18.525-10.695zm-65.823-8.028c7.173-2.731 15.203.87 17.934 8.045 2.73 7.173-.872 15.203-8.046 17.934-7.175 2.729-15.204-.872-17.934-8.045-2.73-7.176.872-15.203 8.046-17.934zm1.235 3.247c-5.38 2.048-8.081 8.069-6.033 13.45 2.047 5.38 8.069 8.081 13.45 6.034 5.38-2.048 8.082-8.07 6.034-13.45-2.048-5.382-8.071-8.082-13.451-6.034z" fill="#FB970D"/><path d="M188.142 242.579c7.309-2.345 15.136 1.678 17.481 8.989 2.344 7.308-1.681 15.135-8.989 17.479-7.31 2.344-15.136-1.679-17.48-8.988-2.345-7.31 1.68-15.135 8.988-17.48zm1.062 3.308c-5.482 1.759-8.5 7.627-6.742 13.11 1.758 5.482 7.628 8.5 13.11 6.742 5.482-1.759 8.5-7.628 6.742-13.11-1.759-5.483-7.629-8.501-13.11-6.742z" fill="#3A5C7F"/><path d="M167.128 184.397c17.855 9.493 38.757-.205 45.284-12.479l1.912 5.383a10.368 10.368 0 00.621 4.851 10.374 10.374 0 002.42 3.714l1.911 5.384c-12.806-5.411-35.144.244-43.014 18.872l-3.658-10.303a15.318 15.318 0 00-1.815-5.112l-3.661-10.31" fill="#FB970D"/><path d="M177.317 207.489c-5.224 19.536 5.232 31.302 18.662 34.894l-4.748 3.069c-.676.076-1.355.22-2.027.435a10.384 10.384 0 00-5.782 4.611l-4.754 3.073c2.242-13.72-4.191-28.087-24.148-31.349l9.49-6.133a15.076 15.076 0 003.831-2.476l9.476-6.124" fill="#3A5C7F"/><path d="M142.588 215.764c-13.512-15.045-28.957-12.706-39.301-3.417l.023-5.658a10.395 10.395 0 00.608-7.89c-.158-.49-.351-.961-.572-1.411l.022-5.654c10.27 9.369 25.697 11.829 39.326-3.11l-.044 11.286a15.075 15.075 0 00-.018 4.559l-.044 11.295" fill="#5BA921"/><path d="M151.416 183.016c10.626-3.432 22.021 2.396 25.455 13.021 3.431 10.624-2.399 22.02-13.023 25.452-10.624 3.434-22.02-2.396-25.452-13.02-3.433-10.625 2.397-22.02 13.02-25.453zm1.555 4.809c-7.968 2.574-12.341 11.121-9.766 19.09 2.574 7.968 11.121 12.34 19.09 9.765 7.967-2.574 12.34-11.121 9.766-19.089-2.575-7.969-11.121-12.34-19.09-9.766z" fill="#3A5C7F"/></g></svg>